<?xml version="1.0" encoding="utf-8"?>
<!-- Generator: Adobe Illustrator 25.0.0, SVG Export Plug-In . SVG Version: 6.00 Build 0)  -->
<svg version="1.1" id="Warstwa_1" xmlns="http://www.w3.org/2000/svg" xmlns:xlink="http://www.w3.org/1999/xlink" x="0px" y="0px"
	 viewBox="0 0 120 120" style="enable-background:new 0 0 120 120;" xml:space="preserve">
<style type="text/css">
	.st0{fill:#E33E3F;}
	.st1{fill-rule:evenodd;clip-rule:evenodd;fill:#E33E3F;}
</style>
<g>
	<path class="st0" d="M91.7,86.4c4.2,0,6.3,0,7.6,1.3c1.3,1.3,1.3,3.4,1.3,7.6v5.9c0,8.3,0,12.5-2.6,15.1c-2.6,2.6-6.8,2.6-15.1,2.6
		H37.1c-8.3,0-12.5,0-15.1-2.6c-2.6-2.6-2.6-6.8-2.6-15.1v-5.9c0-4.2,0-6.3,1.3-7.6c1.3-1.3,3.4-1.3,7.6-1.3H91.7z"/>
	<path class="st1" d="M60,18.2c41.1,0,40.6,27.4,40.6,40.6s0,14.7,0,14.7c0,2.4-2,4.4-4.4,4.4H23.9c-2.4,0-4.4-2-4.4-4.4
		c0,0,0-1.6,0-14.7S18.9,18.2,60,18.2z M60,28.6c-6.9,0-12.5,5.6-12.5,12.5c0,6.9,5.6,12.5,12.5,12.5c6.9,0,12.5-5.6,12.5-12.5
		C72.5,34.2,66.9,28.6,60,28.6z"/>
	<path class="st0" d="M60,1.2c8.9,0,16.6,3.1,18.7,8.2c0.3,0.9,0.5,1.3,0.2,1.6c-0.3,0.3-0.8,0.2-1.9,0c-2.8-0.5-6.6-0.8-10.1-0.9
		c-2.2-0.1-4.5-0.2-6.9-0.2c-2.4,0-4.7,0.1-6.9,0.2c-3.4,0.1-7.4,0.4-10.1,0.9c-1,0.2-1.6,0.3-1.8-0.1c-0.3-0.3-0.1-0.8,0.2-1.6
		C43.3,4.3,51.1,1.2,60,1.2z"/>
</g>
</svg>
